<svg width="19" height="20" viewBox="0 0 19 20" fill="none" xmlns="http://www.w3.org/2000/svg">
<path d="M1.59961 8V14M17.5996 8V14M4.59961 7H14.5996M4.59961 7V15C4.59961 15.2652 4.70497 15.5196 4.8925 15.7071C5.08004 15.8946 5.33439 16 5.59961 16H13.5996C13.8648 16 14.1192 15.8946 14.3067 15.7071C14.4943 15.5196 14.5996 15.2652 14.5996 15V7M4.59961 7C4.59961 5.67392 5.12639 4.40215 6.06408 3.46447C7.00176 2.52678 8.27353 2 9.59961 2C10.9257 2 12.1975 2.52678 13.1351 3.46447C14.0728 4.40215 14.5996 5.67392 14.5996 7M5.59961 1L6.59961 3M13.5996 1L12.5996 3M6.59961 16V19M12.5996 16V19" stroke="#12B76A" stroke-width="2" stroke-linecap="round" stroke-linejoin="round"/>
</svg>
