<svg width="18" height="18" viewBox="0 0 18 18" fill="none" xmlns="http://www.w3.org/2000/svg">
<path d="M3 9.75H6.75M9 12V6H11.25C11.6478 6 12.0294 6.15804 12.3107 6.43934C12.592 6.72064 12.75 7.10218 12.75 7.5V8.25C12.75 8.64782 12.592 9.02936 12.3107 9.31066C12.0294 9.59196 11.6478 9.75 11.25 9.75H9M15 6V12M6.75 12V7.875C6.75 7.37772 6.55246 6.90081 6.20083 6.54917C5.84919 6.19754 5.37228 6 4.875 6C4.37772 6 3.90081 6.19754 3.54917 6.54917C3.19754 6.90081 3 7.37772 3 7.875V12" stroke="#A2845E" stroke-width="1.5" stroke-linecap="round" stroke-linejoin="round"/>
</svg>
