<svg width="20" height="19" viewBox="0 0 20 19" fill="none" xmlns="http://www.w3.org/2000/svg">
<path d="M4.5 4.99998H3.5C2.96957 4.99998 2.46086 5.2107 2.08579 5.58577C1.71071 5.96084 1.5 6.46955 1.5 6.99998V16C1.5 16.5304 1.71071 17.0391 2.08579 17.4142C2.46086 17.7893 2.96957 18 3.5 18H12.5C13.0304 18 13.5391 17.7893 13.9142 17.4142C14.2893 17.0391 14.5 16.5304 14.5 16V15M13.5 2.99998L16.5 5.99998M17.885 4.58499C18.2788 4.19114 18.5001 3.65697 18.5001 3.09998C18.5001 2.543 18.2788 2.00883 17.885 1.61498C17.4912 1.22114 16.957 0.999878 16.4 0.999878C15.843 0.999878 15.3088 1.22114 14.915 1.61498L6.5 9.99998V13H9.5L17.885 4.58499Z" stroke="#22CCEE" stroke-width="2" stroke-linecap="round" stroke-linejoin="round"/>
</svg>
