<svg width="18" height="22" viewBox="0 0 18 22" fill="none" xmlns="http://www.w3.org/2000/svg">
<path d="M5.97428 6.79169C2.84928 6.79169 1.80762 9.91669 1.80762 12.5209C1.80762 15.6459 3.89095 20.3334 5.97428 20.3334C7.10762 20.2854 7.72324 19.8125 9.09928 19.8125C10.466 19.8125 10.6618 20.3334 12.2243 20.3334C13.7868 20.3334 16.3909 17.2084 16.3909 15.125C16.3618 15.1146 13.816 14.7052 13.7868 12C13.767 9.73961 16.3034 8.92294 16.3909 8.87502C15.3253 7.32086 13.317 6.83023 12.7451 6.79169C11.2524 6.67607 9.7972 7.83336 9.09928 7.83336C8.39095 7.83336 7.12012 6.79169 5.97428 6.79169Z" stroke="#12B76A" stroke-width="2" stroke-linecap="round" stroke-linejoin="round"/>
<path d="M9.09928 3.66671C9.65182 3.66671 10.1817 3.44721 10.5724 3.05651C10.9631 2.66581 11.1826 2.13591 11.1826 1.58337C10.6301 1.58337 10.1002 1.80287 9.70948 2.19357C9.31878 2.58427 9.09928 3.11417 9.09928 3.66671Z" stroke="#12B76A" stroke-width="2" stroke-linecap="round" stroke-linejoin="round"/>
</svg>
